# xmcd CD database file
#
# Track frame offsets:
#	150
#	23019
#	49068
#	64716
#	84921
#	111110
#	136855
#	159527
#	173665
#	194496
#	216190
#
# Disc length: 3067 seconds
#
# Revision: 0
# Processed by: cddbd v1.5.1PL0 Copyright (c) Steve Scherf et al.
# Submitted via: CDex 1.51
#
DISCID=8c0bf90b
DTITLE=Jenny Evans - Nuages
DYEAR=2004
DGENRE=Jazz
TTITLE0=mad about the boy
TTITLE1=remember me
TTITLE2=nuages
TTITLE3=our revels now are ended
TTITLE4=within you, without you
TTITLE5=flow my tears
TTITLE6=i´am alone after all
TTITLE7=the feeling of you
TTITLE8=veries leta facies
TTITLE9=no love without tears
TTITLE10=what joy
EXTD=YEAR: 2004
EXTT0=
EXTT1=
EXTT2=
EXTT3=
EXTT4=
EXTT5=
EXTT6=
EXTT7=
EXTT8=
EXTT9=
EXTT10=
PLAYORDER=
